<svg xmlns="http://www.w3.org/2000/svg" viewBox="0 0 256 256"><style>.st0{fill:#17499e}.st6{fill:#57a0d7}.st8{opacity:.7;fill:#010101}</style><g id="Full"><path d="M96.36 251.34l-29.15-29.16c-1.99-1.97-4.04-3.57-6.1-4.76-2.15-1.24-4.34-2.05-6.5-2.41l-29.28-4.59c-2.1-.21-4.12-2.91-3.24-5.58L58.65 86.96c6.63-3.86 129.54-75.36 136.3-79.3 1.2.51 2.67 2.28 3.12 4.26l35.79 159.74c.14.62.12 1.03.09 1.23L99.36 251.14c-.95.52-2.37.79-3 .2zM195.25 7.5" class="st0"/><path d="M229.82 167.08l-26.15-26.13c-2.32-2.32-4.74-4.23-7.2-5.65-2.48-1.43-4.91-2.33-7.23-2.69l-26.19-4.12L26.2 208.11l26.19 4.12c2.32.36 4.75 1.26 7.23 2.69 2.46 1.42 4.89 3.33 7.2 5.65l26.15 26.13c.11.11.22.2.33.26l136.86-79.61a1.68 1.68 0 0 1-.34-.27z" class="st0"/><path fill="#2b66b1" d="M161.85 126.51l34.37-110.85L59.37 95.28 24.99 206.13c-.18.6.28 1.52.87 1.86.11.06.22.11.33.12l136.86-79.61a1.1 1.1 0 0 1-.33-.12c-.59-.35-1.05-1.26-.87-1.87z"/><path fill="#3474bb" d="M236.82 171.72L201.03 11.97c-.63-2.77-2.42-5.01-4.19-6.03-1.14-.66-2.28-.83-3.12-.34L56.87 85.21c.84-.49 1.98-.32 3.12.34 1.77 1.02 3.56 3.26 4.19 6.03l35.79 159.75c.49 2.21-.04 3.75-1.1 4.37l136.86-79.61c1.05-.62 1.58-2.16 1.09-4.37z"/><path fill="#fff" d="M74.7 89.22c-.13-.55-.27-1.1-.44-1.63l117.36-68.27 33.36 148.91c.19.85-.19 1.73-.94 2.16l-113.67 66.13c-1.17.68-2.65.03-2.95-1.29L74.7 89.22z"/><path fill="#e63b35" d="M201.03 11.97c-.63-2.77-2.42-5.01-4.19-6.03-1.14-.66-2.28-.83-3.12-.34L56.87 85.21c.84-.49 1.98-.32 3.12.34 1.77 1.02 3.56 3.26 4.19 6.03l8.57 38.26 136.68-79.51c.06-.04.11-.11.17-.15l-8.57-38.21z"/><path fill="#2d3079" d="M211.2 57.29l-1.59-7.12c-.06.04-.1.12-.17.15L72.76 129.84l1.58 7.07L211.2 57.29z" opacity=".35"/><path id="_x31__14_" d="M99.96 251.33c.86 3.88-1.42 5.69-4.2 4.08-.5-.29-1.01-.69-1.52-1.19l-29.17-29.18c-1.77-1.76-3.63-3.22-5.47-4.28-1.86-1.07-3.7-1.75-5.48-2.04l-29.26-4.58c-.51-.09-1.03-.29-1.52-.57-2.76-1.6-5.04-6.03-4.14-8.9L55.77 86.73c.63-2.05 2.42-2.21 4.21-1.18 1.77 1.02 3.56 3.26 4.19 6.03l35.79 159.75zm-6.67-4.38c.58.33 1.06-.04.86-.86L60.52 95.94c-.09-.38-.33-.68-.57-.82-.24-.14-.49-.12-.58.16L24.99 206.13c-.18.6.28 1.52.87 1.86.11.06.22.11.33.12l26.19 4.12c2.32.36 4.75 1.26 7.23 2.69 2.46 1.42 4.89 3.33 7.2 5.65l26.15 26.13c.12.11.23.19.33.25" class="st6"/><linearGradient id="SVGID_1_" x1="79.43" x2="99.616" y1="55.757" y2="79.107" gradientUnits="userSpaceOnUse"><stop offset=".013" stop-color="#57a0d7"/><stop offset=".865" stop-color="#fff"/></linearGradient><path fill="url(#SVGID_1_)" d="M89.06 55.05c-3.31-1.91-6.31-2.09-8.48-.83l-3.91 2.28c2.17-1.26 5.17-1.09 8.48.83 6.57 3.8 11.9 13.03 11.88 20.6-.01 3.75-1.34 6.39-3.48 7.63l3.91-2.28c2.14-1.24 3.47-3.88 3.48-7.63.02-7.57-5.31-16.8-11.88-20.6z"/><ellipse cx="87.77" cy="83.06" class="st8" rx="5.2" ry="5.57" transform="rotate(-29.628 87.755 83.047)"/><linearGradient id="SVGID_2_" x1="77.68" x2="92.403" y1="62.477" y2="80.938" gradientUnits="userSpaceOnUse"><stop offset=".013" stop-color="#17499e"/><stop offset=".518" stop-color="#57a0d7"/><stop offset="1" stop-color="#17499e"/></linearGradient><path fill="url(#SVGID_2_)" d="M86.62 77.67c-.56.1-1.12.27-1.64.56-.85.49-1.48 1.21-1.91 2.04.64.54 1.31 1.04 2 1.44.23.13.45.2.68.31 1.15.56 2.24.88 3.23.92.08 0 .15-.01.23-.01.41 0 .81-.01 1.18-.09.46-.1.9-.26 1.29-.49l1.1-.64 2.81-1.63c-1.55.67-6.87.44-8.97-2.41zm-4.17-20.25l-3.91 2.28c-1.67.97-2.71 3.04-2.71 5.97-.01 2.4.7 5 1.86 7.46l3.92-2.26c-1.16-2.46-1.87-5.07-1.87-7.47 0-2.94 1.04-5 2.71-5.98z"/><path d="M85.14 57.33c-6.57-3.8-11.94-.75-11.96 6.82-.01 3.24 1 6.76 2.64 10.05l1.86-1.07c-1.16-2.46-1.87-5.06-1.86-7.46.02-5.9 4.19-8.29 9.32-5.33 5.13 2.96 9.28 10.17 9.27 16.07-.01 4.13-2.09 6.48-5.09 6.51-.13 0-.26 0-.39-.01-.98-.05-3.88-.74-5.85-2.64-.41.79-.6 1.69-.58 2.61.83.7 1.68 1.34 2.57 1.86.78.45 1.55.8 2.29 1.06.01 0 .01.01.02.01.75.26 1.46.42 2.15.5 4.37.49 7.48-2.64 7.49-8.38.03-7.57-5.31-16.81-11.88-20.6z" class="st6"/><linearGradient id="SVGID_3_" x1="168.31" x2="192.583" y1="16.072" y2="16.072" gradientUnits="userSpaceOnUse"><stop offset=".013" stop-color="#57a0d7"/><stop offset=".865" stop-color="#fff"/></linearGradient><path fill="url(#SVGID_3_)" d="M180.7 1.63c-3.31-1.91-6.31-2.09-8.48-.83l-3.91 2.28c2.17-1.26 5.17-1.09 8.48.83 6.57 3.8 11.9 13.03 11.88 20.6-.01 3.75-1.34 6.39-3.48 7.63l3.91-2.28c2.14-1.24 3.47-3.88 3.48-7.63.02-7.57-5.31-16.8-11.88-20.6z"/><ellipse cx="179.41" cy="29.64" class="st8" rx="5.2" ry="5.57" transform="rotate(-29.628 179.39 29.635)"/><linearGradient id="SVGID_4_" x1="167.464" x2="187.248" y1="16.772" y2="16.772" gradientUnits="userSpaceOnUse"><stop offset=".013" stop-color="#17499e"/><stop offset=".518" stop-color="#57a0d7"/><stop offset="1" stop-color="#17499e"/></linearGradient><path fill="url(#SVGID_4_)" d="M178.26 24.25c-.56.1-1.12.27-1.64.56-.85.49-1.48 1.21-1.91 2.04.64.54 1.31 1.04 2 1.44.23.13.45.2.68.31 1.15.56 2.24.88 3.23.92.08 0 .15-.01.23-.01.41 0 .81-.01 1.19-.09.46-.1.9-.26 1.29-.49l1.1-.64 2.81-1.63c-1.56.67-6.88.44-8.98-2.41zm-4.17-20.24l-3.91 2.28c-1.67.97-2.71 3.04-2.71 5.97-.01 2.4.7 5 1.86 7.46l3.92-2.26c-1.16-2.46-1.87-5.07-1.87-7.47.01-2.95 1.04-5.01 2.71-5.98z"/><path d="M176.79 3.91c-6.57-3.8-11.94-.75-11.96 6.82-.01 3.24 1 6.76 2.64 10.05l1.86-1.07c-1.16-2.46-1.87-5.06-1.86-7.46.02-5.9 4.19-8.29 9.32-5.33 5.13 2.96 9.28 10.17 9.27 16.07-.01 4.13-2.09 6.48-5.09 6.51-.13 0-.26 0-.39-.01-.98-.05-3.88-.74-5.85-2.64-.41.79-.6 1.69-.58 2.61.83.7 1.68 1.34 2.57 1.86.78.45 1.55.8 2.29 1.06.01 0 .01.01.02.01.75.26 1.46.42 2.15.5 4.37.49 7.48-2.64 7.49-8.38.02-7.57-5.31-16.81-11.88-20.6z" class="st6"/><path d="M116.04 186.67l-9.63-41.79 14.42-7.87 9.63 41.79-14.42 7.87m-7.73-68.69c-1.55.84-2.43 3.09-1.99 5.02l2.88 12.5-5.61 3.06c-2.43 1.33-3.85 4.85-3.15 7.88l10.32 44.77c.7 3.03 3.24 4.41 5.68 3.08l5.61-3.06 2.95 12.79c.44 1.93 2.05 2.82 3.6 1.97 1.55-.84 2.45-3.1 2-5.03l-2.95-12.79 5.61-3.06c2.43-1.33 3.84-4.87 3.15-7.9l-10.32-44.77c-.7-3.03-3.24-4.39-5.67-3.07l-5.61 3.06-2.88-12.5c-.45-1.91-2.07-2.79-3.62-1.95M145.85 108.09c-1.55.84-2.43 3.09-1.99 5.02l2.88 12.5-5.61 3.06c-2.43 1.33-3.85 4.85-3.15 7.88l10.32 44.77c.7 3.03 3.24 4.41 5.68 3.08l5.61-3.06 2.95 12.79c.44 1.93 2.05 2.82 3.6 1.97 1.55-.84 2.45-3.1 2-5.03l-2.95-12.79 5.61-3.06c2.43-1.33 3.84-4.87 3.15-7.9l-10.32-44.77c-.7-3.03-3.24-4.39-5.67-3.07l-5.61 3.06-2.88-12.5c-.46-1.91-2.08-2.79-3.62-1.95M186.24 145.82l-9.63-41.79 14.42-7.87 9.63 41.79-14.42 7.87m-7.72-68.68c-1.55.84-2.43 3.09-1.99 5.02l2.88 12.5-5.61 3.06c-2.43 1.33-3.85 4.85-3.15 7.88l10.32 44.77c.7 3.03 3.24 4.41 5.68 3.08l5.61-3.06 2.95 12.79c.44 1.93 2.05 2.82 3.6 1.97 1.55-.84 2.45-3.1 2-5.03l-2.95-12.79 5.61-3.06c2.43-1.33 3.84-4.87 3.15-7.9L196.3 91.6c-.7-3.03-3.24-4.39-5.67-3.07l-5.61 3.06-2.88-12.5c-.45-1.92-2.07-2.8-3.62-1.95" class="st0"/></g></svg>